<mxfile host="app.diagrams.net" modified="2022-01-21T15:40:31.451Z" agent="5.0 (Windows NT 10.0; Win64; x64) AppleWebKit/537.36 (KHTML, like Gecko) Chrome/97.0.4692.71 Safari/537.36" etag="zv2NbIM5LloQw-M_fnCg" version="16.4.3" type="github">
  <diagram id="C5RBs43oDa-KdzZeNtuy" name="FlowChart">
    <mxGraphModel dx="1423" dy="1102" grid="1" gridSize="10" guides="1" tooltips="1" connect="1" arrows="1" fold="1" page="1" pageScale="1" pageWidth="827" pageHeight="1169" math="0" shadow="0">
      <root>
        <mxCell id="WIyWlLk6GJQsqaUBKTNV-0" />
        <mxCell id="WIyWlLk6GJQsqaUBKTNV-1" parent="WIyWlLk6GJQsqaUBKTNV-0" />
        <mxCell id="e_EOU_C3MtyqYz72lokp-0" value="상세정보 입력 + 결제 방법 선택" style="rounded=0;html=1;jettySize=auto;orthogonalLoop=1;fontSize=11;endArrow=block;endFill=0;endSize=6;strokeWidth=1;shadow=0;labelBackgroundColor=none;edgeStyle=orthogonalEdgeStyle;" edge="1" parent="WIyWlLk6GJQsqaUBKTNV-1" source="e_EOU_C3MtyqYz72lokp-1" target="e_EOU_C3MtyqYz72lokp-3">
          <mxGeometry relative="1" as="geometry" />
        </mxCell>
        <mxCell id="e_EOU_C3MtyqYz72lokp-1" value="결제 상세정보 페이지" style="rounded=1;whiteSpace=wrap;html=1;fontSize=12;glass=0;strokeWidth=1;shadow=0;" vertex="1" parent="WIyWlLk6GJQsqaUBKTNV-1">
          <mxGeometry x="720" y="40" width="120" height="40" as="geometry" />
        </mxCell>
        <mxCell id="e_EOU_C3MtyqYz72lokp-2" value="토스로 결제&lt;br&gt;가결제 진행" style="edgeStyle=orthogonalEdgeStyle;rounded=0;html=1;jettySize=auto;orthogonalLoop=1;fontSize=11;endArrow=block;endFill=0;endSize=8;strokeWidth=1;shadow=0;labelBackgroundColor=none;exitX=0.5;exitY=1;exitDx=0;exitDy=0;entryX=0.5;entryY=0;entryDx=0;entryDy=0;" edge="1" parent="WIyWlLk6GJQsqaUBKTNV-1" source="e_EOU_C3MtyqYz72lokp-3">
          <mxGeometry y="-20" relative="1" as="geometry">
            <mxPoint as="offset" />
            <mxPoint x="1100" y="320" as="targetPoint" />
          </mxGeometry>
        </mxCell>
        <mxCell id="e_EOU_C3MtyqYz72lokp-3" value="결제 방법" style="rhombus;whiteSpace=wrap;html=1;shadow=0;fontFamily=Helvetica;fontSize=12;align=center;strokeWidth=1;spacing=6;spacingTop=-4;" vertex="1" parent="WIyWlLk6GJQsqaUBKTNV-1">
          <mxGeometry x="720" y="160" width="120" height="80" as="geometry" />
        </mxCell>
        <mxCell id="e_EOU_C3MtyqYz72lokp-4" value="다날로 결제" style="edgeStyle=orthogonalEdgeStyle;rounded=0;html=1;jettySize=auto;orthogonalLoop=1;fontSize=11;endArrow=block;endFill=0;endSize=6;strokeWidth=1;shadow=0;labelBackgroundColor=none;exitX=0.5;exitY=1;exitDx=0;exitDy=0;entryX=0.5;entryY=0;entryDx=0;entryDy=0;" edge="1" parent="WIyWlLk6GJQsqaUBKTNV-1" source="e_EOU_C3MtyqYz72lokp-3" target="e_EOU_C3MtyqYz72lokp-7">
          <mxGeometry y="20" relative="1" as="geometry">
            <mxPoint as="offset" />
            <mxPoint x="630" y="210" as="sourcePoint" />
            <mxPoint x="620" y="320" as="targetPoint" />
          </mxGeometry>
        </mxCell>
        <mxCell id="e_EOU_C3MtyqYz72lokp-5" value="웹" style="edgeStyle=orthogonalEdgeStyle;rounded=0;orthogonalLoop=1;jettySize=auto;html=1;exitX=0;exitY=0.5;exitDx=0;exitDy=0;entryX=1;entryY=0.5;entryDx=0;entryDy=0;endArrow=block;endFill=0;" edge="1" parent="WIyWlLk6GJQsqaUBKTNV-1" source="e_EOU_C3MtyqYz72lokp-7" target="e_EOU_C3MtyqYz72lokp-9">
          <mxGeometry relative="1" as="geometry" />
        </mxCell>
        <mxCell id="e_EOU_C3MtyqYz72lokp-6" value="앱" style="edgeStyle=orthogonalEdgeStyle;rounded=0;orthogonalLoop=1;jettySize=auto;html=1;exitX=1;exitY=0.5;exitDx=0;exitDy=0;endArrow=block;endFill=0;entryX=0;entryY=0.5;entryDx=0;entryDy=0;" edge="1" parent="WIyWlLk6GJQsqaUBKTNV-1" source="e_EOU_C3MtyqYz72lokp-7" target="e_EOU_C3MtyqYz72lokp-12">
          <mxGeometry relative="1" as="geometry">
            <mxPoint x="410" y="490" as="targetPoint" />
          </mxGeometry>
        </mxCell>
        <mxCell id="e_EOU_C3MtyqYz72lokp-7" value="결제 플랫폼" style="rhombus;whiteSpace=wrap;html=1;shadow=0;fontFamily=Helvetica;fontSize=12;align=center;strokeWidth=1;spacing=6;spacingTop=-4;" vertex="1" parent="WIyWlLk6GJQsqaUBKTNV-1">
          <mxGeometry x="240" y="320" width="120" height="80" as="geometry" />
        </mxCell>
        <mxCell id="e_EOU_C3MtyqYz72lokp-8" value="결제 진행" style="edgeStyle=orthogonalEdgeStyle;rounded=0;orthogonalLoop=1;jettySize=auto;html=1;exitX=0.5;exitY=1;exitDx=0;exitDy=0;entryX=0.5;entryY=0;entryDx=0;entryDy=0;endArrow=block;endFill=0;fontStyle=1" edge="1" parent="WIyWlLk6GJQsqaUBKTNV-1" source="e_EOU_C3MtyqYz72lokp-9" target="e_EOU_C3MtyqYz72lokp-15">
          <mxGeometry relative="1" as="geometry" />
        </mxCell>
        <mxCell id="e_EOU_C3MtyqYz72lokp-9" value="모달 형식 결제창" style="rounded=1;whiteSpace=wrap;html=1;fontSize=12;glass=0;strokeWidth=1;shadow=0;" vertex="1" parent="WIyWlLk6GJQsqaUBKTNV-1">
          <mxGeometry x="80" y="440" width="120" height="40" as="geometry" />
        </mxCell>
        <mxCell id="e_EOU_C3MtyqYz72lokp-10" value="결제 진행" style="edgeStyle=orthogonalEdgeStyle;rounded=0;orthogonalLoop=1;jettySize=auto;html=1;exitX=0.5;exitY=1;exitDx=0;exitDy=0;endArrow=block;endFill=0;endSize=6;" edge="1" parent="WIyWlLk6GJQsqaUBKTNV-1" source="e_EOU_C3MtyqYz72lokp-11" target="e_EOU_C3MtyqYz72lokp-18">
          <mxGeometry relative="1" as="geometry" />
        </mxCell>
        <mxCell id="e_EOU_C3MtyqYz72lokp-11" value="토스 결제 페이지" style="rounded=1;whiteSpace=wrap;html=1;fontSize=12;glass=0;strokeWidth=1;shadow=0;" vertex="1" parent="WIyWlLk6GJQsqaUBKTNV-1">
          <mxGeometry x="1040" y="320" width="120" height="40" as="geometry" />
        </mxCell>
        <mxCell id="e_EOU_C3MtyqYz72lokp-12" value="다날 결제 페이지" style="rounded=1;whiteSpace=wrap;html=1;fontSize=12;glass=0;strokeWidth=1;shadow=0;" vertex="1" parent="WIyWlLk6GJQsqaUBKTNV-1">
          <mxGeometry x="440" y="440" width="120" height="40" as="geometry" />
        </mxCell>
        <mxCell id="e_EOU_C3MtyqYz72lokp-13" value="결제 성공" style="edgeStyle=orthogonalEdgeStyle;rounded=0;orthogonalLoop=1;jettySize=auto;html=1;exitX=0.5;exitY=1;exitDx=0;exitDy=0;endArrow=block;endFill=0;endSize=6;entryX=0;entryY=0.5;entryDx=0;entryDy=0;" edge="1" parent="WIyWlLk6GJQsqaUBKTNV-1" source="e_EOU_C3MtyqYz72lokp-15" target="e_EOU_C3MtyqYz72lokp-26">
          <mxGeometry relative="1" as="geometry">
            <mxPoint x="140" y="760" as="targetPoint" />
          </mxGeometry>
        </mxCell>
        <mxCell id="e_EOU_C3MtyqYz72lokp-14" value="결제 실패" style="edgeStyle=orthogonalEdgeStyle;rounded=0;orthogonalLoop=1;jettySize=auto;html=1;exitX=0;exitY=0.5;exitDx=0;exitDy=0;entryX=0;entryY=0.5;entryDx=0;entryDy=0;endArrow=block;endFill=0;endSize=6;" edge="1" parent="WIyWlLk6GJQsqaUBKTNV-1" source="e_EOU_C3MtyqYz72lokp-15" target="e_EOU_C3MtyqYz72lokp-1">
          <mxGeometry relative="1" as="geometry">
            <Array as="points">
              <mxPoint x="40" y="600" />
              <mxPoint x="40" y="60" />
            </Array>
          </mxGeometry>
        </mxCell>
        <mxCell id="e_EOU_C3MtyqYz72lokp-15" value="결제 성공 여부" style="rhombus;whiteSpace=wrap;html=1;shadow=0;fontFamily=Helvetica;fontSize=12;align=center;strokeWidth=1;spacing=6;spacingTop=-4;" vertex="1" parent="WIyWlLk6GJQsqaUBKTNV-1">
          <mxGeometry x="80" y="560" width="120" height="80" as="geometry" />
        </mxCell>
        <mxCell id="e_EOU_C3MtyqYz72lokp-16" value="결제 실패" style="edgeStyle=orthogonalEdgeStyle;rounded=0;orthogonalLoop=1;jettySize=auto;html=1;exitX=1;exitY=0.5;exitDx=0;exitDy=0;entryX=1;entryY=0.5;entryDx=0;entryDy=0;endArrow=block;endFill=0;endSize=6;" edge="1" parent="WIyWlLk6GJQsqaUBKTNV-1" source="e_EOU_C3MtyqYz72lokp-18" target="e_EOU_C3MtyqYz72lokp-1">
          <mxGeometry relative="1" as="geometry" />
        </mxCell>
        <mxCell id="e_EOU_C3MtyqYz72lokp-17" value="결제 성공" style="edgeStyle=orthogonalEdgeStyle;rounded=0;orthogonalLoop=1;jettySize=auto;html=1;exitX=0.5;exitY=1;exitDx=0;exitDy=0;entryX=0.5;entryY=0;entryDx=0;entryDy=0;endArrow=block;endFill=0;endSize=6;" edge="1" parent="WIyWlLk6GJQsqaUBKTNV-1" source="e_EOU_C3MtyqYz72lokp-18" target="e_EOU_C3MtyqYz72lokp-23">
          <mxGeometry relative="1" as="geometry" />
        </mxCell>
        <mxCell id="e_EOU_C3MtyqYz72lokp-18" value="결제 성공 여부" style="rhombus;whiteSpace=wrap;html=1;shadow=0;fontFamily=Helvetica;fontSize=12;align=center;strokeWidth=1;spacing=6;spacingTop=-4;" vertex="1" parent="WIyWlLk6GJQsqaUBKTNV-1">
          <mxGeometry x="1040" y="440" width="120" height="80" as="geometry" />
        </mxCell>
        <mxCell id="e_EOU_C3MtyqYz72lokp-19" value="결제 성공" style="edgeStyle=orthogonalEdgeStyle;rounded=0;orthogonalLoop=1;jettySize=auto;html=1;exitX=0.5;exitY=1;exitDx=0;exitDy=0;endArrow=block;endFill=0;endSize=6;entryX=0;entryY=0.5;entryDx=0;entryDy=0;" edge="1" parent="WIyWlLk6GJQsqaUBKTNV-1" source="e_EOU_C3MtyqYz72lokp-20" target="e_EOU_C3MtyqYz72lokp-26">
          <mxGeometry relative="1" as="geometry">
            <mxPoint x="500" y="760" as="targetPoint" />
          </mxGeometry>
        </mxCell>
        <mxCell id="e_EOU_C3MtyqYz72lokp-20" value="콜백 함수&lt;br&gt;결제 성공 여부" style="rhombus;whiteSpace=wrap;html=1;shadow=0;fontFamily=Helvetica;fontSize=12;align=center;strokeWidth=1;spacing=6;spacingTop=-4;" vertex="1" parent="WIyWlLk6GJQsqaUBKTNV-1">
          <mxGeometry x="440" y="560" width="120" height="80" as="geometry" />
        </mxCell>
        <mxCell id="e_EOU_C3MtyqYz72lokp-21" value="결제 진행" style="edgeStyle=orthogonalEdgeStyle;rounded=0;orthogonalLoop=1;jettySize=auto;html=1;exitX=0.5;exitY=1;exitDx=0;exitDy=0;entryX=0.5;entryY=0;entryDx=0;entryDy=0;endArrow=block;endFill=0;fontStyle=1" edge="1" parent="WIyWlLk6GJQsqaUBKTNV-1" source="e_EOU_C3MtyqYz72lokp-12" target="e_EOU_C3MtyqYz72lokp-20">
          <mxGeometry relative="1" as="geometry">
            <mxPoint x="-130" y="530" as="sourcePoint" />
            <mxPoint x="-130" y="610" as="targetPoint" />
          </mxGeometry>
        </mxCell>
        <mxCell id="e_EOU_C3MtyqYz72lokp-22" value="" style="edgeStyle=orthogonalEdgeStyle;rounded=0;orthogonalLoop=1;jettySize=auto;html=1;endArrow=block;endFill=0;endSize=6;entryX=1;entryY=0.5;entryDx=0;entryDy=0;exitX=0.5;exitY=1;exitDx=0;exitDy=0;" edge="1" parent="WIyWlLk6GJQsqaUBKTNV-1" source="e_EOU_C3MtyqYz72lokp-23" target="e_EOU_C3MtyqYz72lokp-26">
          <mxGeometry relative="1" as="geometry">
            <mxPoint x="1100" y="730" as="targetPoint" />
          </mxGeometry>
        </mxCell>
        <mxCell id="e_EOU_C3MtyqYz72lokp-23" value="토스 결제 콜백 페이지" style="rounded=1;whiteSpace=wrap;html=1;fontSize=12;glass=0;strokeWidth=1;shadow=0;" vertex="1" parent="WIyWlLk6GJQsqaUBKTNV-1">
          <mxGeometry x="1040" y="560" width="120" height="40" as="geometry" />
        </mxCell>
        <mxCell id="e_EOU_C3MtyqYz72lokp-24" value="결제 완료 페이지&lt;br&gt;예약 완료 페이지" style="rounded=1;whiteSpace=wrap;html=1;fontSize=12;glass=0;strokeWidth=1;shadow=0;" vertex="1" parent="WIyWlLk6GJQsqaUBKTNV-1">
          <mxGeometry x="720" y="880" width="120" height="40" as="geometry" />
        </mxCell>
        <mxCell id="e_EOU_C3MtyqYz72lokp-25" value="이동" style="edgeStyle=orthogonalEdgeStyle;rounded=0;orthogonalLoop=1;jettySize=auto;html=1;endArrow=block;endFill=0;endSize=6;" edge="1" parent="WIyWlLk6GJQsqaUBKTNV-1" source="e_EOU_C3MtyqYz72lokp-26" target="e_EOU_C3MtyqYz72lokp-24">
          <mxGeometry relative="1" as="geometry" />
        </mxCell>
        <mxCell id="e_EOU_C3MtyqYz72lokp-26" value="결제 확정" style="rounded=0;whiteSpace=wrap;html=1;strokeColor=#000000;fillColor=default;gradientColor=none;" vertex="1" parent="WIyWlLk6GJQsqaUBKTNV-1">
          <mxGeometry x="720" y="760" width="120" height="40" as="geometry" />
        </mxCell>
      </root>
    </mxGraphModel>
  </diagram>
</mxfile>
